<?xml version="1.0" encoding="UTF-8" standalone="no"?>
<svg
   id="svg8"
   version="1.1"
   viewBox="0 0 33.866664 33.866667"
   height="128"
   width="128"
   sodipodi:docname="favicon.svg"
   inkscape:version="1.1.1 (c3084ef, 2021-09-22)"
   xmlns:inkscape="http://www.inkscape.org/namespaces/inkscape"
   xmlns:sodipodi="http://sodipodi.sourceforge.net/DTD/sodipodi-0.dtd"
   xmlns="http://www.w3.org/2000/svg"
   xmlns:svg="http://www.w3.org/2000/svg"
   xmlns:rdf="http://www.w3.org/1999/02/22-rdf-syntax-ns#"
   xmlns:cc="http://creativecommons.org/ns#"
   xmlns:dc="http://purl.org/dc/elements/1.1/">
  <sodipodi:namedview
     id="namedview7"
     pagecolor="#ffffff"
     bordercolor="#666666"
     borderopacity="1.0"
     inkscape:pageshadow="2"
     inkscape:pageopacity="0.0"
     inkscape:pagecheckerboard="0"
     inkscape:document-units="px"
     showgrid="true"
     fit-margin-top="0"
     fit-margin-left="0"
     fit-margin-right="0"
     fit-margin-bottom="0"
     inkscape:zoom="2.7294511"
     inkscape:cx="-31.32498"
     inkscape:cy="13.372652"
     inkscape:window-width="2560"
     inkscape:window-height="1395"
     inkscape:window-x="1680"
     inkscape:window-y="24"
     inkscape:window-maximized="0"
     inkscape:current-layer="g1039"
     units="px">
    <inkscape:grid
       type="xygrid"
       id="grid827"
       empspacing="4" />
  </sodipodi:namedview>
  <defs
     id="defs2" />
  <metadata
     id="metadata5">
    <rdf:RDF>
      <cc:Work
         rdf:about="">
        <dc:format>image/svg+xml</dc:format>
        <dc:type
           rdf:resource="http://purl.org/dc/dcmitype/StillImage" />
      </cc:Work>
    </rdf:RDF>
  </metadata>
  <g
     style="display:inline"
     transform="translate(-80.34962,-116.74192)"
     id="layer1">
    <g
       id="g1039"
       transform="matrix(1.8656303,0,0,1.8656303,-68.464092,-95.677644)">
      <path
         style="font-style:normal;font-variant:normal;font-weight:bold;font-stretch:normal;font-size:10.5833px;line-height:1.25;font-family:'Source Code Pro';-inkscape-font-specification:'Source Code Pro Bold';fill:#d3d0c8;fill-opacity:1;stroke-width:0.999999"
         d="m 92.074219,85.306641 -2.121094,2.558593 c 4.439985,5.359975 10.601195,8.720704 18.201175,8.720704 7.59997,0 13.75923,-3.360729 18.19922,-8.720704 l -2.11914,-2.558593 c -4.59999,5.079949 -9.5601,7.318359 -16.08008,7.318359 -6.51998,0 -11.480094,-2.23841 -16.080081,-7.318359 z"
         transform="matrix(0.26458333,0,0,0.26458333,61.037104,104.31322)"
         id="path45" />
      <path
         id="path43"
         style="font-style:normal;font-variant:normal;font-weight:bold;font-stretch:normal;font-size:10.5833px;line-height:1.25;font-family:'Source Code Pro';-inkscape-font-specification:'Source Code Pro Bold';fill:#99cc99;fill-opacity:1;stroke-width:0.999999"
         d="m 67.351562,45.9375 c -2.279989,0 -3.919921,1.519688 -3.919921,3.679688 0,2.159999 1.639932,3.560546 3.919921,3.560546 2.27999,0 3.919922,-1.400547 3.919922,-3.560546 0,-2.16 -1.639932,-3.679688 -3.919922,-3.679688 z m -10.43038,10.545958 v 4.288095 h 7.504166 V 75.779886 H 70.85749 V 56.483458 Z"
         transform="matrix(0.26458333,0,0,0.26458333,78.036583,104.58762)"
         sodipodi:nodetypes="sssssccccccc" />
      <path
         id="path41"
         style="font-style:normal;font-variant:normal;font-weight:bold;font-stretch:normal;font-size:10.5833px;line-height:1.25;font-family:'Source Code Pro';-inkscape-font-specification:'Source Code Pro Bold';fill:#f99157;fill-opacity:1;stroke-width:0.264583"
         d="m 83.361258,116.74192 c -0.603247,0 -1.037146,0.40208 -1.037146,0.97358 0,0.5715 0.433899,0.94206 1.037146,0.94206 0.603248,0 1.037146,-0.37056 1.037146,-0.94206 0,-0.5715 -0.433898,-0.97358 -1.037146,-0.97358 z m -2.744422,2.79028 v 1.13456 l 1.985477,0 v 3.97095 h 1.701838 v -5.10551 z"
         sodipodi:nodetypes="sssssccccccc" />
      <path
         style="font-style:normal;font-variant:normal;font-weight:bold;font-stretch:normal;font-size:10.5833px;line-height:1.25;font-family:'Source Code Pro';-inkscape-font-specification:'Source Code Pro Bold';fill:#ffcc66;fill-opacity:1;stroke-width:0.264583"
         d="m 86.573268,117.26308 v 1.13456 h 1.701837 l -0.01164,4.29333 c -0.0036,1.3335 0.735871,2.14438 2.048202,2.14438 0.656164,0 1.038268,-0.082 1.588599,-0.26187 l -0.348817,-1.14308 c -0.317497,0.127 -0.571521,0.1695 -0.814937,0.1695 -0.444498,0 -0.761948,-0.18783 -0.761699,-0.83341 l 0.0021,-5.50341 z"
         id="path39"
         sodipodi:nodetypes="cccssccsscc" />
    </g>
  </g>
</svg>
