<?xml version="1.0" encoding="UTF-8" standalone="no"?>
<svg
   xmlns:dc="http://purl.org/dc/elements/1.1/"
   xmlns:cc="http://creativecommons.org/ns#"
   xmlns:rdf="http://www.w3.org/1999/02/22-rdf-syntax-ns#"
   xmlns:svg="http://www.w3.org/2000/svg"
   xmlns="http://www.w3.org/2000/svg"
   id="svg8"
   version="1.1"
   viewBox="0 0 24.049177 29.12896"
   height="29.12896mm"
   width="24.049177mm">
  <defs
     id="defs2" />
  <metadata
     id="metadata5">
    <rdf:RDF>
      <cc:Work
         rdf:about="">
        <dc:format>image/svg+xml</dc:format>
        <dc:type
           rdf:resource="http://purl.org/dc/dcmitype/StillImage" />
        <dc:title></dc:title>
      </cc:Work>
    </rdf:RDF>
  </metadata>
  <g
     style="display:inline"
     transform="translate(-78.036583,-104.58762)"
     id="layer1">
    <path
       transform="matrix(0.26458333,0,0,0.26458333,61.037104,104.31322)"
       d="m 116.77344,1.0371094 -12.33789,24.3359376 3.58789,0.386719 12.33789,-24.3339848 z M 97.525391,3.0839844 94.421875,4.1445312 93.613281,28.933594 96.716797,27.875 Z M 140.97656,9.3671875 117,27.003906 l 3.30273,2.140625 23.97657,-17.636719 z m -60.154294,2.8984375 -2.289063,1.865234 6.822266,20.464844 -18.767578,-4.982422 -1.527344,2.134766 19.177734,5.091797 1.271485,-1.777344 0.08203,0.244141 2.289062,-1.863282 z m 72.419924,15.777344 -23.99024,6.298828 1.90235,2.673828 23.99023,-6.298828 z M 65.082031,40.410156 64.25,42.193359 l 14.841797,1.111329 0.830078,-1.785157 z m 18.550781,6.564453 c -2.279992,0 -3.919921,1.519688 -3.919921,3.679688 0,2.16 1.639929,3.560547 3.919921,3.560547 2.279993,0 3.919922,-1.400547 3.919922,-3.560547 0,-2.16 -1.639929,-3.679688 -3.919922,-3.679688 z m 47.968748,0 c -2.27999,0 -3.91992,1.519688 -3.91992,3.679688 0,2.16 1.63993,3.560547 3.91992,3.560547 2.27999,0 3.91992,-1.400547 3.91992,-3.560547 0,-2.16 -1.63993,-3.679688 -3.91992,-3.679688 z m -35.785154,2.160157 v 4.638672 h 6.240234 v 15.640624 c 0,5.040001 2.60056,8.240235 7.56055,8.240235 2.47999,0 3.87899,-0.400066 5.95898,-1.080078 l -1.31836,-4.320313 c -1.19999,0.48 -2.16008,0.640625 -3.08008,0.640625 -1.67999,0 -3.24023,-0.800247 -3.24023,-3.240234 V 49.134766 Z m -22.824218,8.199218 v 4.59961 h 7.960937 v 15.240234 h 5.878906 V 57.333984 Z m 47.968752,0 v 4.59961 h 7.96094 v 15.240234 h 5.8789 V 57.333984 Z m -28.886721,27.972657 -2.121094,2.558593 c 4.439985,5.359975 10.601195,8.720704 18.201175,8.720704 7.59997,0 13.75923,-3.360729 18.19922,-8.720704 l -2.11914,-2.558593 c -4.59999,5.079949 -9.5601,7.318359 -16.08008,7.318359 -6.51998,0 -11.480094,-2.23841 -16.080081,-7.318359 z m -1.673828,12.058593 -1.363282,1.728516 -2.464843,3.79687 0.867187,0.71094 3.238281,-3.16406 1.425782,-1.677734 z m 34.699219,0.689454 -1.74805,1.335937 1.36719,1.724605 3.13086,3.27149 0.88867,-0.67969 -2.33398,-3.878905 z m -29.683594,2.921872 -0.978516,1.97071 -1.630859,4.22461 0.99414,0.51562 2.517578,-3.76172 1.048829,-1.93555 z m 24.585934,0.49024 -1.98828,0.9414 0.97656,1.97071 2.37696,3.85351 1.01367,-0.47851 -1.47461,-4.28125 z m -19.15039,1.88281 -0.51367,2.14062 -0.646484,4.48047 1.083984,0.28125 1.61328,-4.23047 0.5918,-2.11914 z m 13.66016,0.27148 -2.15039,0.46875 0.50781,2.14063 1.44531,4.29101 1.09571,-0.23828 -0.46875,-4.5039 z m -7.94727,0.77735 -0.004,2.20117 0.41015,4.50781 1.1211,0.0234 0.58789,-4.48828 0.084,-2.19922 z"
       style="font-style:normal;font-variant:normal;font-weight:bold;font-stretch:normal;font-size:10.5833px;line-height:1.25;font-family:'Source Code Pro';-inkscape-font-specification:'Source Code Pro Bold';fill:#d3d0c8;fill-opacity:1;stroke-width:0.999999"
       id="path968" />
  </g>
</svg>
