<svg width="40" height="62" version="1.1" viewBox="0 0 40 62" xmlns="http://www.w3.org/2000/svg">
 <g fill="grey">
  <path d="m19.557 52.428 0.02148 1.1406 0.25781 2.3359h0.58203l0.25976-2.334 0.02148-1.1426z"/>
  <path d="m23.672 51.941-1.1113 0.26562 0.28711 1.1055 0.79297 2.2109 0.56641-0.13477-0.28906-2.332z"/>
  <path d="m16.582 51.941-0.24414 1.1152-0.28906 2.332 0.56445 0.13477 0.79492-2.2109 0.28516-1.1055z"/>
  <path d="m26.498 50.768-1.0215 0.50781 0.52734 1.0137 1.2734 1.9746 0.51953-0.25977-0.80859-2.2051z"/>
  <path d="m13.738 50.766-0.48828 1.0332-0.80273 2.209 0.52148 0.25781 1.2676-1.9785 0.52344-1.0156z"/>
  <path d="m29.107 48.945-0.89258 0.71094 0.72656 0.88086 1.6582 1.6641 0.45508-0.36133-1.252-1.9883z"/>
  <path d="m11.098 48.945-0.68945 0.91016-1.2383 1.9961 0.45703 0.35938 1.6465-1.6758 0.72266-0.88476z"/>
  <path d="m11.789 42.525-1.1016 1.3281c2.304 2.7814 5.5015 4.5254 9.4453 4.5254 3.9438 0 7.1394-1.744 9.4434-4.5254l-1.0996-1.3281c-2.387 2.6361-4.9604 3.7988-8.3438 3.7988-3.3834 0-5.9567-1.1627-8.3438-3.7988z"/>
  <path d="m26.893 28.01v2.3887h4.1309v7.9082h3.0508v-10.297z"/>
  <path d="m2 28.01v2.3887h4.1309v7.9082h3.0508v-10.297z"/>
  <path d="m13.844 23.756v2.4062h3.2383v8.1172c0 2.6154 1.35 4.2754 3.9238 4.2754 1.2869 0 2.0124-0.20768 3.0918-0.56055l-0.68359-2.2402c-0.6227 0.24908-1.1222 0.33203-1.5996 0.33203-0.87178 0-1.6797-0.41548-1.6797-1.6816v-10.648z"/>
  <path d="m32.414 22.635c-1.1831 0-2.0352 0.78928-2.0352 1.9102 0 1.1209 0.85202 1.8477 2.0352 1.8477 1.1831 0 2.0332-0.72679 2.0332-1.8477 0-1.1209-0.85007-1.9102-2.0332-1.9102z"/>
  <path d="m7.5215 22.635c-1.1831 0-2.0332 0.78928-2.0332 1.9102 0 1.1209 0.85007 1.8477 2.0332 1.8477 1.1831 0 2.0352-0.72679 2.0352-1.8477 0-1.1209-0.85202-1.9102-2.0352-1.9102z"/>
  <path d="m11.439 14.119 1.4297 0.25586c-0.62264 0.10331-1.0706-0.01129-1.4297-0.25586z"/>
  <path d="m33.236 12.315c3.5839-1.1125 6.6047-4.3204 6.7635-11.966l-2.815-0.34862c-0.11768 6.9345-2.0208 8.3984-4.7287 9.239-4.5396 1.4091-10.508-4.5968-16.561-2.7179-3.5839 1.1125-6.6047 4.3204-6.7141 12.125l2.7656 0.18933c0.16713-6.7752 2.0208-8.3984 4.7287-9.239 4.5396-1.4091 10.508 4.5968 16.561 2.7179z"/>
  <path d="m26.618 21.189c2.4633 0.55729 5.217-0.39364 7.9237-4.503l-2.2976-1.7383c-1.8758 3.1296-3.3547 3.6074-4.852 3.2687-2.7531-0.62285-3.8638-5.139-7.6794-6.0022-2.4633-0.55729-5.217 0.39364-7.9347 4.5513l2.3086 1.69c1.8649-3.0813 3.3547-3.6074 4.852-3.2687 2.7531 0.62285 3.8638 5.139 7.6794 6.0022z"/>
  <path d="m7.4637 18.311c1.3649 1.2352 3.4342 1.5905 6.5653 0.01033l-0.92667-2.1259c-2.0658 1.165-3.1576 1.0505-3.9412 0.34145-1.4155-1.281-0.55087-4.2686-2.573-6.0985-1.3649-1.2352-3.4342-1.5905-6.5882 0.014949l0.94954 2.1007c2.0429-1.1397 3.1829-1.0277 3.9412-0.34145 1.4155 1.281 0.55087 4.2686 2.573 6.0985z"/>
 </g>
</svg>
